<svg id="Camada_1" data-name="Camada 1" xmlns="http://www.w3.org/2000/svg" viewBox="0 0 194.65 110.25"><defs><style>.cls-1{fill:#f90;}.cls-2{fill:#fefefe;}</style></defs><title>logo</title><g id="Layer0_0_FILL" data-name="Layer0 0 FILL"><path class="cls-1" d="M131.35,33.25A27.51,27.51,0,0,0,123,13.05a28.61,28.61,0,0,0-40.4,0,27.51,27.51,0,0,0-8.35,20.2,27.51,27.51,0,0,0,8.35,20.2,28.61,28.61,0,0,0,40.4,0A27.51,27.51,0,0,0,131.35,33.25Z" transform="translate(-3.05 -4.7)"/></g><g id="Layer0_0_MEMBER_0_FILL" data-name="Layer0 0 MEMBER 0 FILL"><path d="M122.35,20.8l-.45-.15-.65.85,0,.05-.2.15-.2.05h-.25L101.4,11.4l-1-.3h-.15l-.8.25L83,20.85l0,8.5L114.6,46.5l.6.2-4.65,2.65h-.4l-.25-.05L87.15,36.9l-.5-.2-4.8,9.15.35.35,1,.5.55.2.7-1.1h.15l.35.05.9.3,18.75,10,0,.15.45.1h.2l.3,0,17.1-9.65V38.15l-.1,0-.65-.55L90.45,20.65l.8-.35,3.1-1.95.55-.15.3.05h.2l.8.35,22.65,12,4.9-9Z" transform="translate(-3.05 -4.7)"/></g><g id="Layer0_0_MEMBER_1_FILL" data-name="Layer0 0 MEMBER 1 FILL"><path d="M29.75,87.55l.05,1.25.2.75.4.9.55.8.55.6.6.45,1.6.75.65.4.7.85.5.45.9.55,3.55.5,5.8-.1,2.1-5.9H45.8l.25-.7L46.6,88l.25-.75H38.8l15-33.95H51.05L52.35,50H46.6l-.4.1-.1,0-.15.1-16,36-.25,1.3M35.15,86l0,.4,0,.65.2.5.35.35.8.45,1,.15h7l-.1.25-1,3.3-8.8,0-.4-.1-1-.4-.85-.5-.3-.25L31.6,90l-.45-.9-.2-1v-.2l.05-.6.7-2.2L46.45,51.75h4.2L35.5,84.7Z" transform="translate(-3.05 -4.7)"/></g><g id="Layer0_0_MEMBER_2_FILL" data-name="Layer0 0 MEMBER 2 FILL"><path d="M189.85,50.3l-.1.05L174,85.8l-.25.7L173.6,88l.25,1.35.25.7.5.8,1.05,1.2,2.25,1.2,1.3,1.2,1.05.7,1.1.45.2,0,.75.1h7.55L192,89.8h-2.35l.15-.55.7-1.3.25-.75H182.9l.15-.5L197.7,53.25h-2.8l.35-.7,1-2.55H190.4l-.25.1-.3.2m.65,1.45h4l-15.4,34v.8l.1.65.05.15.15.25.5.5.5.25,1.3.15h6.7l-.5,1.2-.25,1.6-.05.2-.25.2-.45.15h-8.15l-1.25-.3-.7-.35-.6-.55-.35-.45-.55-1-.05-.15-.1-.2-.25-1.35.25-1.25Z" transform="translate(-3.05 -4.7)"/></g><g id="Layer0_0_MEMBER_3_FILL" data-name="Layer0 0 MEMBER 3 FILL"><path d="M23.75,73.15l-1-1-.8-.6-1.05-.5-2.4-.55-2.3.1-3.3.55-1.15.35-2.9,1.6-2.2,2.1-.25.3-1.25,1.9-.1,0v.15l-.85,1.4-.7,2-.2,2,.05,2.55L3.7,87.2l.2.65,3,4.75.65.85,1,.85,2.2.8,1.6.25,14.55.1,2.4-4.6.1-.65H26.7l.25-.7.35-.6.45-1.05.05-.2-16.3-.2-.95-.3-.1-.1H16.6l1.45-.2,2.6-.7,1.85-.9L24,84.1,25.05,83l.35-.55.35-.85.1-.8V79.9l-.2-1.5-1-3.55-.5-1-.4-.65m-2.85-1,.8.45.65.5,1,1.15.3.6.25.85.15,1-.4,2.15L23.05,80l-.9,1-.7.6-1.75.85-4.3.75H8.1v.3l-.1.4v0l0,.25v.4l.15.75.8,1.55.4.45.75.55.4.1,15.85.3-1.4,2.85-.1.15-.15.1-.15.15-.2.1H10.9L9.75,91.5,7.9,90.65,6.75,89.6l-1.3-2-.7-2.1-.2-1.3V82.75l0-.5L4.9,81l.75-1.9,1.15-2,.9-1.2,1.4-1.2,1.8-1.2,2.6-1.25,1.2-.35.4,0,3.2-.15,1.4.2Z" transform="translate(-3.05 -4.7)"/></g><g id="Layer0_0_MEMBER_4_FILL" data-name="Layer0 0 MEMBER 4 FILL"><path d="M64.05,70.85l-1.75-.3-3.75.25-2.9.75-.85.4L52.65,73.3,50.85,75l-1.75,2.2L48,79.35l-.85,3.45-.1,1.3.35,2.6.4,1L48,88l3.45,5.4.7.6,1,.55,1.1.4,1.95.4h12.3l2.2.2.3.15,2.5-5.35.1-.15H70.7l.9-2.2v-.35l-15.7-.1-1.15-.3-.3-.2,6.8-.1,1.35-.2,1.8-.6,2.35-1.25,1.2-.85.7-.75.65-1,.35-2.15-.3-2.4-.7-2.6-.5-1.1-.5-.8-1-1-1.15-.8-1.45-.55m.2,1.1,1.2.55,1.25,1,.7.8.3.55.35,1.4L68,78l-.25.9-.2.4-1.15,1.45-1.3,1-1.95.9-2.45.5-8.7,0v.5l.2,1.9.4,1.05.85.9.7.35,2.4.4H70.1l-1.2,2.9-.15.2-.1.1-.15.1-.15.05H54.8l-.5-.05-.7-.15-1-.35-1.2-.75-.85-.8-.85-1.2-.8-1.6-.25-.7-.15-1.35.05-2.35.3-1.4,1.25-2.9.65-1,1.35-1.65,2.05-1.65,3-1.45,1.65-.4,4-.15Z" transform="translate(-3.05 -4.7)"/></g><g id="Layer0_0_MEMBER_5_FILL" data-name="Layer0 0 MEMBER 5 FILL"><path d="M102.65,73.75l-.7,0-1.1-.35-.55-.65-.15-.5v-.45l0-.1V71.6l.1-.1v-.1l.1-.4H95.05l-.15.55-.3.45-5,11.4h2.6L90.4,86.8h6.4l.4,0,.2.1h0l.1.1v0l0,.05v0l.2,1.3.75,1.6,2.35,3,1.5,1.1,1.15.6,1.2.4,2.4.45,5,.1.15-.1h0l.3-.25,1.65-4.15.25-.8H112.2l.7-1.2.4-1.3h-7.65l-.2-2.1.1-1,.35-1.15.8-1,1.3-.85,1.65-.45,3,0,0-.25,1.85-4.8H112.2l.85-1.85.25-.7-10.65,0M99.6,73.1l.1.3.85.75.45.15.9.2,10.1,0-1.45,3H109l-1,.15-2.25.75-1.45.85-1.2,1-.65.75-.5.8-.35.8-.2.9,0,1.2.45,1.5.4.65.65.65.7.5.85.45,1.5.35,6.35-.15-1.45,3.35-5,0-2.1-.4-1.45-.5-.7-.4-1-.75-.75-1-1-2.2-.25-1-.1-2.1.35-2L99,81l1.15-1.6,1.5-1.55.25-.3H96.55l0,.75v0l-.25.25-1.8,4h-3.4l0-.1v-.2l.05-.25L95.7,72h3.6l.2,1Z" transform="translate(-3.05 -4.7)"/></g><g id="Layer0_0_MEMBER_6_FILL" data-name="Layer0 0 MEMBER 6 FILL"><path class="cls-2" d="M65.45,72.5,64.25,72l-2.7-.3-2.25.2-2.85.75L54.2,73.75,52.5,75.1l-1.25,1.35-1.1,1.6L48.9,81l-.3,1.4-.05.85.1,2.45.3,1.1,1.2,2.2.45.6.85.8,1.2.75,1,.35.7.15.5.05H68.35l.15-.05.15-.1.1-.1,1.35-3.1H56.5l-2.4-.4-.7-.35-.85-.9-.4-1.05L52,83.2l8.7,0,2.2-.4,2.2-1,1.3-1L67.5,79.3l.2-.4L68,78l.1-1.75-.35-1.4-.3-.55-1.05-1.1-.9-.7m-6.6,2.85,1-.2,1.3-.05,1.55.3.65.3.5.4.15.2.4.85v.35l-.1.55-.3.45-.5.4-.65.3-1.15.3-2.8.35L53,79.8l1.4-1.9.8-.75,2.3-1.35Z" transform="translate(-3.05 -4.7)"/></g><g id="Layer0_0_MEMBER_7_FILL" data-name="Layer0 0 MEMBER 7 FILL"><path d="M89.1,64.75l.7-1.3.2-.7H84.3L80.5,71.4H75.4l-2.35,4.65h2.6l-.2.25-.9,2.7H76.9l-1.1,2L74.15,85.2l-.45,2,0,1.1.45,1.65.5.85.6.7,2.55,1.7,1,1.2.55.55,2,.7,1.45.2,5.9-.1.25-.4,2.1-4.9H88.3l.2-.3.4-.95.25-1.5h-7.4v-.1l.1-.1v-.2L85.35,79H90.2L91,77.8l1.5-3.7.1-.4H90.2L91.1,72l.2-.55H89.15l2.65-5.7.1-.45H89l.15-.5M85,72.25l0,.15h4.6l-.1.6-.75,1.6-.15.55h-4.9l-.1.5L78.9,86.05l-.1.8v.45l.15.4.25.35.25.1.15.15.55.2,1.2.2H87.9l-1.1,3.1v.1H80.35l-1.8-.2-1.2-.3-1.15-.75-.4-.45-.5-.8-.4-1.25-.05-.45v-.9L75,86l4.45-10.3.2-.7H74.8l.35-1,.9-1.6H80.9l3.8-8.85h4Z" transform="translate(-3.05 -4.7)"/></g><g id="Layer0_0_MEMBER_8_FILL" data-name="Layer0 0 MEMBER 8 FILL"><path class="cls-2" d="M22.35,73.15l-.65-.5-.8-.45L20,71.9l-2.05-.25-3.2.2-1.2.35-2.6,1.25-1.8,1.2-1.4,1.2-2,3.2L4.9,81l-.3,1.3,0,.5.1,2.35.2.8.6,1.7,1.3,2L7.9,90.65l1.4.65.75.25.85.1H24.3l.2-.1.15-.15.15-.1.4-.6,1.1-2.4L12,88.25,10.45,88l-.4-.1-.75-.55-.4-.45-.8-1.55L8,84.6v-.4l.15-.7v-.3h7.3l3.25-.45,2-.7.85-.45.7-.6.9-1,.7-1.55.3-1.75-.15-1-.25-.85-.3-.6-1-1.15M17.5,75.1l.35.05,1.5.4.9.9.25.3.05.2v.55l-.05.3-.2.4-.1,0L20,78.6l-.35.3-.6.35-1,.35-1.35.15L9,79.8,9.5,79l1.3-1.5L13.05,76l1.55-.55Z" transform="translate(-3.05 -4.7)"/></g><g id="Layer0_0_MEMBER_9_FILL" data-name="Layer0 0 MEMBER 9 FILL"><path d="M151.4,71.9V70.75h-5.75L140.4,83.4h2.5l-.4.7-.4,1,0,.2h6.1l1.85-5,.05-.45.7.3.5.4.6.7.45,1,.1,1v.5l-.2,1-.35.65-.45.6-.75.55-1.1.55-.75.1H138.5l-.3.3-2.3,5.25h2.75L137.4,95.9l9.2.1,3.45-.5,2.85-1,1.15-.65,1.7-1.4.9-1.1L158,88.8l.55-1.55.25-2.35-.1-1.7-.55-2.35-.6-1.4-1.15-1.8-.75-1-1-1L153.4,75l-.55-.2.4-1.25h-.8l-.45-.15-.2-.25-.1-.1-.1-.2-.2-.9m-5-.1.05,0,.25-.15h.1l.45,0,2.75,0,.3.6.2,1L151.8,75l1.1,1,1.45,1,.45.45.8,1,.7,1.2.65,1.65v.15l.1.6-.1,2.8-.2,1.1-.45,1.3-.5.9-.7.85-2,1.75-.85.55-1.05.4-2,.35-11.55-.1v-.3l.15-.7.85-1.85.25-.75,9.95,0,1.3-.3.75-.35,1-.65.75-.7.6-1.3.2-.65.05-.7-.25-1.45-.4-1.15-.75-1.1-3.55-3.6-.4-.25-.05.25-2.45,5.45-3.6,0,4.1-9.45.25-.35Z" transform="translate(-3.05 -4.7)"/></g><g id="Layer0_0_MEMBER_10_FILL" data-name="Layer0 0 MEMBER 10 FILL"><path class="cls-2" d="M35.1,86.4l.1-.8.3-.9L50.65,51.75h-4.2L31.7,85.1,31,87.3l-.05.3v.5l.2,1,.2.55.8,1.1.3.25.85.5,1,.4,1.25.15h8l1-3.3.1-.25h-7l-1-.15-.25-.1-.55-.35-.35-.35-.2-.5Z" transform="translate(-3.05 -4.7)"/></g><g id="Layer0_0_MEMBER_11_FILL" data-name="Layer0 0 MEMBER 11 FILL"><path class="cls-2" d="M194.5,51.75h-4l-15.35,34.5-.25,1.25.25,1.35.1.2.05.15.55,1,.6.7.35.3.7.35,1.75.35,7.65-.05.45-.15.25-.2.05-.2.25-1.6.5-1.2h-6.7l-1.55-.25-.25-.15-.35-.35-.1,0-.2-.35-.05-.15-.1-.65v-.8Z" transform="translate(-3.05 -4.7)"/></g><g id="Layer0_0_MEMBER_12_FILL" data-name="Layer0 0 MEMBER 12 FILL"><path d="M172,63.35l-.65-.35-1.4-.4h-.6l-.8.15-.75.25-1.05.75L165.8,65l-.3.75-.2,1.4.2,1,.45,1,.8,1.2.15.45.15.8.5,1,.4.4V73l.05,0,.05.3H165.3l-5.7,13.75-.55,1.8-.1.8v.85l.25,1,.15.3,1,1.35,1.25,1.15,1.1.7,1.85.65,1.7.2h6.45l.15-.05h.1l0,0,.65-1.4.8-2.5h-2.5l1-2.75h-5.5l5.5-13.35h-2.75l.45-1.25h.5l1.3-.2.75-.2.6-.3.6-.4.65-.65.5-1,.2-.8v-.85l-.2-1.1-.35-.75-1.1-1.65-.6-1.6-.55-1-.1-.1-.8-.65m-1.85.4,1,.3.9.6.5.55.4.7.35,1.1,0,.4,0,.3-.2.7-.3.55-.15.2-.4.4-1.25.7-.4.1-.85.1h-.35l-.85-.15-.35-.1-.1-.15L168,70l-.3-.2-.6-.6-.3-.5-.25-.6-.05-1.1.15-.8.7-1.3.65-.55,1-.45.6-.15h.6m-4,10.15h3.6L163.5,88.05l-.1.7v.35l.1.5.15.25.5.5.7.35,2.3.3,3.65-.2-.8,2-.05.25-.3.45-.05,0-.25.15-.15,0h-4.95l-1.9-.35-.4-.2-1.25-.85-.8-1.6v-.1l-.05-.1v-.15l0-.2.1-1.6Z" transform="translate(-3.05 -4.7)"/></g><g id="Layer0_0_MEMBER_13_FILL" data-name="Layer0 0 MEMBER 13 FILL"><path class="cls-2" d="M115,83.15l0,2.1.5,1.65,1,1.85,1.15,1.1,1.7,1,1.4.45,3.35.2,1.55-.3,1.5-.5,1.9-.9,2.75-2.15,1.6-2,1.05-2,.6-2,.25-2-.35-2.45-.4-1.15-.55-1.05-.75-.95-1.9-1.45-1.1-.5-1.3-.3-1.4-.1-2.3.15-2.25.6-3,1.65-2.2,2-2.15,3.55-.4,1.1-.35,2.3m5-4,1.4-1.8,1.3-1.05,1.45-.8,2.55-.55h1.1l1.25.3,1.1.6.5.55.35.5.45,1.1.15,1.2v.8l-.15,1.5-.4,1.35-.65,1.2-.85,1.15-1,1-2.35,1.45-2.5.7h-1.2l-1.1-.15-1-.5-.45-.3-.35-.4-.7-1-.2-.55-.15-.7-.1-1.85.4-1.75Z" transform="translate(-3.05 -4.7)"/></g><g id="Layer0_0_MEMBER_14_FILL" data-name="Layer0 0 MEMBER 14 FILL"><path class="cls-2" d="M88.7,63.55h-4L80.9,72.4H76.05L74.9,74.6l-.1.4h4.85l-.2.7-3.9,8.85L75,86.3l-.1.5v.9l.05.45.4,1.25.5.8.4.45,1.15.75,1.2.3,1.8.2H86.8v-.1l1.1-3.1H81.35l-1.2-.2-.55-.2-.15-.15-.25-.1L79,87.7l-.15-.4v-.45l.1-.8,4.65-10.4.1-.5h4.9l.15-.55.75-1.6.1-.6H85l0-.15Z" transform="translate(-3.05 -4.7)"/></g><g id="Layer0_0_MEMBER_15_FILL" data-name="Layer0 0 MEMBER 15 FILL"><path d="M115.7,77.35,115,78.6l-1.1,3.2-.2,2.1.1,1.25.3,1.15.35.85,2.4,4.55,1.05,1.45,1.75,1.45.75.4,2.3.7,2,.1,1,0,2.9-.65,2.5-1.3,1-.65,1.85-1.6,2.4-2.85,1.15-2.2.55-1.75.1-1.15-.15-3.1-.6-1.6-1.25-2.05-.1-.35-1.45-2.6-2-1.65-1.1-.65-1.9-.6-2.05-.35-1.7,0-2.65.75-3.7,1.75-1.35,1-2.5,3.1m-.75,7,.4-3.45.4-1.1,2.15-3.55,3.25-2.7,1.95-1,.9-.3,1.7-.35,2-.1,1.4.1,1.3.3,1.1.5,1.9,1.45.75.95.55,1.05.55,1.7.2,1.25v1.3l-.35,2-.5,1.3-1.05,2-.95,1.25-1.7,1.65-1.3,1-2.3,1.15-1.5.5-1.55.3-3.35-.2-1.4-.45-1.3-.75L117,89.2l-.4-.45-1-1.85-.55-2Z" transform="translate(-3.05 -4.7)"/></g><g id="Layer0_0_MEMBER_16_FILL" data-name="Layer0 0 MEMBER 16 FILL"><path class="cls-2" d="M100.55,74.15l-.85-.75-.1-.3L99.5,73l-.2-1H95.7l-4.25,9.25-.35,1v.2l0,.1h3.4l1.8-4,.25-.25v0l0-.75h5.35l-.25.3-1.5,1.55L99,81l-.15.45-.45,2.3.1,2.1.15.75L99.8,89l.5.7,1.25,1,.7.4,1,.4,2.5.5,5,0,1.45-3.35-6.9.1L104,88.3l-.8-.45-.7-.6-.5-.7-.35-.65-.25-.75,0-.8,0-.8.2-.9.35-.8.5-.8,1.35-1.45,1.4-.95,1.75-.75,1.45-.4h2.2l1.45-3h-9.7L101,74.3Z" transform="translate(-3.05 -4.7)"/></g><g id="Layer0_0_MEMBER_17_FILL" data-name="Layer0 0 MEMBER 17 FILL"><path class="cls-2" d="M146.5,71.75l-.05,0,0,.1-.25.35-4.1,9.45,3.6,0,2.4-5.25.1-.45.2.1.6.5,3.15,3.25.75,1.1.65,2.2-.05,1.1-.2.65-.6,1.3-.75.7-1,.65-.75.35-1.3.3-9.95,0-.25.75-.85,1.85-.15.7v.3l11.55.1.7,0,2-.5,1.2-.75,2-1.75,1.2-1.75.5-1.55.15-.85.1-2.8-.1-.6v-.15l-.65-1.65-.7-1.2L154.35,77l-1.45-1-1.1-1-1.25-1.75-.2-1-.3-.6-2.75,0-.45,0h-.1Z" transform="translate(-3.05 -4.7)"/></g><g id="Layer0_0_MEMBER_18_FILL" data-name="Layer0 0 MEMBER 18 FILL"><path class="cls-2" d="M169.75,73.9h-3.6L159.9,88.65l-.1,1.6,0,.2v.15l.05.1v.1l.8,1.6,1.25.85.4.2,1.15.3,5.7,0,.15,0,.25-.15.05,0,.3-.45.05-.25.8-2-4.7.1-1.25-.2-.7-.35-.5-.5-.15-.25-.05-.2,0-.65.1-.7Z" transform="translate(-3.05 -4.7)"/></g><g id="Layer0_0_MEMBER_19_FILL" data-name="Layer0 0 MEMBER 19 FILL"><path d="M118.85,81.45l-.25,1.15,0,.6.1,1.6.15.7.2.55,1,1.4.45.3,1,.5.55.1,1.75.05,2.5-.7,1.75-1,1.6-1.4.85-1.15.65-1.2.4-1.35.15-1.5-.05-1.35-.1-.65-.45-1.1-.35-.5-.5-.55-.9-.55L127.85,75l-1.5,0-2.15.5-1.45.8-1,.8L120.6,78.4l-1.75,3m2.45,5-.1-.45V85.9l.25-1.85.4-1.25.35-.75.8-1,2-1.6.85-.4.45-.15.25,0h2.2l1.05.15.4.1.4.3.1.05.3.5.05.35v.55l-.45,1.8-.3.6-1.2,1.65L127.85,86l-1.15.7-1.5.5-2.75,0-1.15-.15Z" transform="translate(-3.05 -4.7)"/></g><g id="Layer0_0_MEMBER_20_FILL" data-name="Layer0 0 MEMBER 20 FILL"><path d="M17.85,75.15l-.35-.05-2.9.3-1.15.4L11.5,76.9l-1.4,1.25L9,79.8,18,79.6l1-.35.6-.35.35-.3.25-.35.1,0,.2-.4.05-.3V77l-.05-.2-.25-.3-.9-.9Z" transform="translate(-3.05 -4.7)"/></g><g id="Layer0_0_MEMBER_21_FILL" data-name="Layer0 0 MEMBER 21 FILL"><path d="M59.85,75.15l-1.45.3-1.45.6-2.6,1.85L53,79.8l5.95,0,2.8-.35,1.15-.3.65-.3.5-.4.3-.45.1-.55v-.35L64,76.3l-.15-.2-.5-.4-.65-.3-.35-.1-1.2-.2Z" transform="translate(-3.05 -4.7)"/></g><g id="Layer0_0_MEMBER_22_FILL" data-name="Layer0 0 MEMBER 22 FILL"><path class="cls-2" d="M167.45,64.75l-.3.4-.55,1-.15.8.05,1.1.25.6.3.5.6.6.3.2.15,0,.1.15,1.05.25h.5l1.1-.15.85-.4.55-.35.65-.75.4-1.1v-.15l0-.35-.4-1.3-.4-.7-.5-.55-.4-.3-.85-.4-.65-.2h-.6l-1.1.3-.5.3Z" transform="translate(-3.05 -4.7)"/></g><g id="Layer0_0_MEMBER_23_FILL" data-name="Layer0 0 MEMBER 23 FILL"><path d="M83.2,110.8H88v-1H83.2v-2.7h5.15v-1H82v8.8h6.55v-1H83.2v-3m13.3-3.75v-1h-7v1h2.9v7.8h1.15v-7.8h3m5.15,5.1,1,2.7h1.4l-3.6-8.8h-1.3l-3.35,8.8H97l1-2.7h3.7m-3.35-1,1.15-3,.3-1.25,1.55,4.25h-3m7.75-5.15H104.9v8.8h5.5v-1h-4.35v-7.8m9.35-.55,1.3-1.65h-1.35l-.9,1.65h1m3.3.55h-1.2v5.85l-.25,1-.25.45-.25.2-.1,0-.05.05-.25.1h-.1l-.25.15-1.2,0-.35,0-.45-.2-.45-.35-.1,0-.3-.5-.15-.9-.1-5.85h-1.15l.1,6.35.2.75.2.4.6.8.6.3.65.2,1.15.1,1.15-.1.45-.1.65-.35.35-.3.45-.65.25-.65.1-.75,0-6m7.3.1-1.15-.1h-4.2v8.8h1.15V111h1.9l.8.35.6.7,1.85,2.85h1.45l-2.45-3.6-.35-.25-.4-.15,1.3-.4.25-.15h0l.4-.4.4-.75.1-.9-.25-.85-.25-.45-.3-.35-.75-.4-.15,0m-1.15.85.4,0,.7.25.2.25,0,.1.2.2.1.8-.15.5-.5.5-.85.25-3.2,0v-3h3m15.55-1h-1.2v8.8h1.2v-8.8m-5.6,1.1.5.25.4.4.25.4.25.6,1-.3-.1-.4-.45-.9-.35-.4-.65-.4-1.15-.4-.65-.1-1.2.1-.8.2-1.3.7-.8,1.2-.35.85-.2,1.2.05,1.25.5,1.45.65.9.9.7,1.75.5,1.6,0,1.15-.35,1.55-1v-3.2H133.6v1h2.6v1.65l-.5.3-.95.4-.75.2-1.45-.2-.55-.2-.4-.25-.6-.55-.2-.35-.25-.65-.15-.8v-1l.1-.65.25-.7.2-.4.4-.5.6-.45.55-.25.55-.1h1l.75.25m9.75.2.75-.35.45-.1h.9l.6.15.35.2.25.2.15.15.2.25.4.9,1.15-.25-.1-.35-.4-.8-.75-.8-.75-.4-.55-.15-.95-.1-.85.1-1.05.3-.45.25-.6.5-.35.4-.4.75-.3.85-.05.3,0,1.05.2,1.75.65,1.35.35.4.85.65,1.4.4,1.75-.1.45-.15.65-.35.2-.25.25-.15.4-.5.25-.4.3-1-1.1-.3-.25.75-.4.65-.3.3-.75.4-.9.15-.55,0-1.1-.45-.4-.4-.55-1-.1-.45-.1-1.7.15-1,.45-1,.6-.6m10.4-1.3h-1.2l-3.35,8.8h1.2l1-2.7h3.7l1,2.7h1.35l-3.65-8.8m1,5.15h-3l1.45-4.25,1.55,4.25M4.2,106.05H3.05v8.8H4.2v-8.8m9,0H12.05V113l-4.6-6.9H6.25v8.8h1.1V108l4.65,6.9h1.2v-8.8m12,0H24v5.7l.05.65.2.75.15.4.35.5.35.3.55.3.7.2.8.1h.9l1.05-.2.65-.35.45-.45.35-.5.2-.65.15-1,.05-5.7h-1.2v5.85l-.25,1-.3.45-.2.2-.75.35-1.2,0-.35,0-.45-.2-.45-.35-.15,0-.25-.5-.2-.9-.05-5.85m-2.8,3.5-.3-1.2-.55-1-.65-.65-1-.45-.5-.1-4.25,0v8.8l3.55,0,1.3-.15.95-.6.4-.35.5-.65.4-1,.15-1.6,0-.85m-1.25-.4.1.9-.05,1.25-.1.6-.2.5-.35.55-.35.35-.1,0-.05.1-.75.25-3,.15v-6.8H18.6l1,.2.45.3.65.7.35.9m7.85-5.3H27.5l-.8,1.65h.9L29,103.85m4.95,2.55-.25.15-.25.25-.35.45-.15.45,0,.3v.6l0,.3v.15l.1.1v.15l.45.6.7.4.55.2,2.6.7.35.15.4.3.1.15.2.55v.35l-.1,0v.1l-.15.35-.25.25-.4.25-1,.25h-.35l-1-.1-.85-.5-.15-.15-.3-.4,0-.1-.2-.75-1.1,0,.1.7.1.35.5.9.3.3.6.3,1.05.35.8,0,1.15,0,.65-.15.4-.2.75-.55.45-.8.15-.85-.15-.8-.4-.7-.55-.45-.55-.25-3.15-.9-.4-.25-.2-.2-.15-.6v-.1l.15-.35.15-.2,0-.15.3-.15.1-.1.6-.2.45,0,1.3.15.35.2.35.35.1.15.25.65.05.2,1.1-.1-.05-.5-.3-.7-.3-.45-.3-.25-.45-.3-1.2-.4-1.55.1-1.15.4m10.55.65H47.3v-1H40.4v1h2.85v7.8h1.2v-7.8m14.35-1H57.65v8.8H58.8v-8.8m-4.45.25-.45-.15-1.15-.1h-4.2v8.8h1.2V111H51.6l.65.25.3.2,2.3,3.45H56.3l-1.75-2.75-.45-.55-.6-.55-.4-.15,1.35-.4.2-.15h.05l.3-.25.25-.35.1-.25.2-.8v-.55l-.1-.5-.2-.45-.15-.2-.45-.45-.3-.2m-.2,1.35.15.35.05.35v.4l-.05.2-.2.35-.25.25-.05.1-.25,0-.2.1-.4.1-3.2,0v-3h3l1,.25.1,0,.35.35m10.3-1.6H63.2l-3.35,8.8h1.2l1-2.7H65.7l1,2.7h1.3l-3.6-8.8m.9,5.15H62.4L63.8,107l1.55,4.25m8.1-5.15h-1.8v8.8H72.8v-7.5l2.6,7.5h1l2.5-7.4v7.4H80.1v-8.8H78.55l-2.6,7.5-2.5-7.5m89.9,0H162.2v8.8h5.5v-1h-4.35v-7.8m11.1,1v-1H167.5v1h2.9v7.8h1.2v-7.8h2.85m13.75-1H187l-3.4,8.8h1.25l1-2.7h3.65l1.05,2.7h1.3l-3.6-8.8m-2.1,5.15,1.35-3.8.05-.45,1.55,4.25h-3m-3.15-.1-.1-1.8-.3-1.2-.35-.65-.75-.8-.65-.35-.85-.2-4.3,0v8.8l3.55,0,1.05-.1.55-.2.65-.35.45-.45.5-.85.35-.85.2-.9m-2.3-3.55.4.4.45.7.25,1.75-.1,1.15-.45,1.15-.15.25-.35.35-.2.15-.7.25-3,.15v-6.8h2.3l1,.2Z" transform="translate(-3.05 -4.7)"/></g></svg>