<svg id="Camada_1" data-name="Camada 1" xmlns="http://www.w3.org/2000/svg" viewBox="0 0 57.1 57.1"><defs><style>.cls-1{fill:#f90;}</style></defs><title>logo-icon</title><g id="Layer0_0_FILL" data-name="Layer0 0 FILL"><path class="cls-1" d="M131.35,33.25A27.51,27.51,0,0,0,123,13.05a28.61,28.61,0,0,0-40.4,0,27.51,27.51,0,0,0-8.35,20.2,27.51,27.51,0,0,0,8.35,20.2,28.61,28.61,0,0,0,40.4,0A27.51,27.51,0,0,0,131.35,33.25Z" transform="translate(-74.25 -4.7)"/></g><g id="Layer0_0_MEMBER_0_FILL" data-name="Layer0 0 MEMBER 0 FILL"><path d="M122.35,20.8l-.45-.15-.65.85,0,.05-.2.15-.2.05h-.25L101.4,11.4l-1-.3h-.15l-.8.25L83,20.85l0,8.5L114.6,46.5l.6.2-4.65,2.65h-.4l-.25-.05L87.15,36.9l-.5-.2-4.8,9.15.35.35,1,.5.55.2.7-1.1h.15l.35.05.9.3,18.75,10,0,.15.45.1h.2l.3,0,17.1-9.65V38.15l-.1,0-.65-.55L90.45,20.65l.8-.35,3.1-1.95.55-.15.3.05h.2l.8.35,22.65,12,4.9-9Z" transform="translate(-74.25 -4.7)"/></g></svg>